<svg width="88" height="48" viewBox="0 0 88 48" fill="none" xmlns="http://www.w3.org/2000/svg">
<path fill-rule="evenodd" clip-rule="evenodd" d="M14.2379 14.8615C9.71877 10.4676 5.57942 5.69726 1.8652 0.602623L1.86578 0.602203C1.47377 0.0796681 0.50853 0.544552 0.82854 1.15955C4.31119 7.60549 8.89188 13.3969 14.3612 18.2689C23.9496 27.0204 35.3616 33.51 47.7494 37.2556C53.9652 39.1606 60.3718 40.3471 66.8437 40.7921C70.3212 40.9981 73.8032 40.9915 77.2706 40.7735L77.3339 40.7445C78.8726 40.0411 80.4122 39.3427 81.9557 38.6528C82.6742 39.1808 83.6944 38.6412 83.6866 37.8836C84.3082 37.609 84.9307 37.3361 85.5541 37.0649L86.1886 39.7396C83.2351 40.2408 80.2583 40.5857 77.2706 40.7735L73.468 42.5174C73.7135 42.4949 73.9595 42.6027 74.1102 42.8101C74.2945 43.0639 74.293 43.4072 74.1064 43.6559C73.4208 44.4743 72.6747 45.1969 71.9198 45.9281C71.6655 46.1744 71.4102 46.4216 71.1559 46.6738L69.1766 44.5995C68.6934 44.9787 68.4938 45.6425 68.7232 46.2489C68.9997 46.9795 69.8002 47.3658 70.5365 47.1238C71.9523 46.617 73.3264 46.0019 74.6467 45.2839L78.5626 43.4604C81.2332 42.2203 83.8917 40.9534 86.538 39.6597C87.1732 39.4063 87.5282 38.7276 87.3771 38.0554C87.2217 37.3796 86.5903 36.9208 85.9037 36.9848C85.1199 37.1385 84.3338 37.279 83.5459 37.4063C83.5205 37.363 83.4914 37.3196 83.4584 37.2762C82.2372 35.6509 80.8476 34.1591 79.3128 32.8258C78.5083 32.1433 77.6581 31.5166 76.7681 30.9501C76.0788 30.3767 75.238 30.0153 74.3476 29.9098C74.0727 29.9381 73.8263 30.0921 73.6805 30.3269C73.5347 30.5617 73.5058 30.8508 73.6024 31.1098C74.082 31.8295 74.723 32.4274 75.4743 32.8558C76.1629 33.3743 76.8284 33.9248 77.4946 34.4759C77.55 34.5218 77.6054 34.5676 77.6609 34.6134C78.8592 35.5983 80.0016 36.649 81.0828 37.7605C75.6805 38.4418 70.2078 38.5066 64.7696 37.9501C52.2287 36.7293 40.0895 32.7333 29.2285 26.2504C23.8284 23.0235 18.8002 19.2034 14.2379 14.8615ZM71.7834 43.2352C72.2626 43.0179 72.7478 42.8136 73.2386 42.6226L73.468 42.5174C73.4131 42.5225 73.3583 42.534 73.3046 42.5524C72.7818 42.76 72.2787 42.9915 71.7834 43.2352ZM71.7834 43.2352C70.8884 43.641 70.0145 44.0924 69.1651 44.5875L69.1766 44.5995C69.2756 44.5219 69.3864 44.4562 69.5078 44.4054C69.818 44.2477 70.1242 44.0878 70.4292 43.9285C70.8801 43.6931 71.3285 43.459 71.7834 43.2352Z" fill="#FFD5CE"/>
</svg>
